<?xml version="1.0" encoding="utf-8"?>
<!-- Generator: Adobe Illustrator 20.1.0, SVG Export Plug-In . SVG Version: 6.00 Build 0)  -->
<svg version="1.1" id="Layer_1" xmlns="http://www.w3.org/2000/svg" xmlns:xlink="http://www.w3.org/1999/xlink" x="0px" y="0px"
	 viewBox="0 0 100 125" style="enable-background:new 0 0 100 125;" xml:space="preserve">
<style type="text/css">
	.st0{fill:#FFFFFF;}
</style>
<g>
	<path class="st0" d="M50.3,98C24,98,2.6,76.6,2.6,50.3S24,2.6,50.3,2.6S98,24,98,50.3S76.6,98,50.3,98z M50.3,11.4
		c-21.4,0-38.8,17.4-38.8,38.8S28.9,89,50.3,89s38.8-17.4,38.8-38.8S71.7,11.4,50.3,11.4z"/>
	<g>
		<path class="st0" d="M46.6,50.1c-0.8-2.7,1-5.2,3.9-5.5L72,41.9c2.9-0.4,3.1,0.4,0.5,1.6l-19.6,9.2C50.2,54,47.4,52.8,46.6,50.1z"
			/>
		<circle class="st0" cx="49.5" cy="49.2" r="6.1"/>
	</g>
	<polygon class="st0" points="50.8,19 49.9,25.7 49,19 	"/>
	<polygon class="st0" points="27.5,29.3 29.5,32.1 26.6,30.2 	"/>
	<polygon class="st0" points="26.6,70.4 29.5,68.5 27.5,71.3 	"/>
	<polygon class="st0" points="74.4,30.2 71.6,32.1 73.5,29.3 	"/>
	<polygon class="st0" points="18.8,48.7 25.6,49.5 18.6,50.3 	"/>
	<path class="st0" d="M50.3,82c0,0-0.6,0-1.7,0c-0.5,0-1.2,0-2-0.1s-1.7-0.2-2.7-0.3c-1-0.2-2.1-0.5-3.3-0.8
		c-0.6-0.2-1.2-0.4-1.8-0.6c-0.3-0.1-0.6-0.2-1-0.3c-0.3-0.1-0.6-0.3-1-0.4c-2.7-1.1-5.5-2.8-8.2-5.2c-2.7-2.3-5.2-5.3-7.2-9
		c-1.9-3.6-3.3-7.8-3.7-12.3c0-0.6-0.1-1.1-0.1-1.7v-0.9c0-0.4,0-0.6,0-0.9c0-0.6,0-1.1,0.1-1.7V47l0.1-0.9c0.2-1.2,0.3-2.4,0.6-3.5
		l0.4-1.7c0.1-0.6,0.4-1.1,0.6-1.7c1.6-4.5,4.2-8.6,7.6-12.1c3.4-3.4,7.6-6,12.1-7.6s9.2-2.1,13.7-1.7s8.8,1.7,12.4,3.7
		c3.6,1.9,6.6,4.5,9,7.2c2.3,2.7,4.1,5.5,5.2,8.2c0.1,0.3,0.3,0.7,0.4,1s0.2,0.7,0.3,1c0.2,0.6,0.4,1.2,0.6,1.8
		c0.3,1.2,0.5,2.3,0.8,3.3c0.1,1,0.2,1.9,0.3,2.7c0.1,0.8,0,1.5,0.1,2c0,1.1,0,1.7,0,1.7s-0.1-0.6-0.1-1.7c-0.1-0.5-0.1-1.2-0.2-2
		S81.3,45,81.1,44c-0.3-1-0.6-2.1-0.9-3.2c-0.2-0.6-0.5-1.2-0.7-1.8c-0.1-0.3-0.2-0.6-0.4-0.9c-0.2-0.3-0.3-0.6-0.5-0.9
		c-1.2-2.5-3-5.2-5.4-7.7c-2.3-2.5-5.3-4.8-8.8-6.6c-3.5-1.8-7.5-2.9-11.7-3.2c-4.3-0.3-8.7,0.3-12.8,1.8c-4.2,1.5-8.1,4-11.2,7.1
		c-3.2,3.2-5.6,7.1-7.2,11.2c-0.2,0.5-0.4,1-0.5,1.6L20.6,43c-0.3,1.1-0.4,2.1-0.6,3.2L19.8,47l-0.1,0.8c0,0.6-0.1,1.1-0.1,1.7v0.8
		v0.8c0,0.5,0,1.1,0.1,1.6C20,57,21.1,61,22.9,64.5s4.1,6.4,6.6,8.8c2.5,2.3,5.1,4.2,7.7,5.4c0.3,0.2,0.6,0.3,0.9,0.5
		c0.3,0.1,0.6,0.3,0.9,0.4c0.6,0.2,1.2,0.5,1.8,0.7C42,80.7,43,81,44,81.2c1,0.2,1.9,0.3,2.7,0.5s1.5,0.2,2,0.2
		C49.7,81.9,50.3,82,50.3,82z"/>
</g>
</svg>
